<?xml version="1.0" encoding="iso-8859-1"?>
<!-- Uploaded to: SVG Repo, www.svgrepo.com, Generator: SVG Repo Mixer Tools -->
<svg fill="#000000" height="800px" width="800px" version="1.1" id="Capa_1" xmlns="http://www.w3.org/2000/svg" xmlns:xlink="http://www.w3.org/1999/xlink" 
	 viewBox="0 0 296.556 296.556" xml:space="preserve">
<g>
	<path d="M230.695,201.11h-17.75v-16h26.25c4.418,0,7.75-3.282,7.75-7.7v-2.773c0-51.973-40-94.759-91-99.126v-10.4
		c5,0,8.167-3.582,8.167-8s-3.415-8-7.833-8h-16c-4.418,0-8.167,3.582-8.167,8s3.833,8,7.833,8v10.303
		c-51,3.807-92,46.854-92,99.224v2.773c0,4.418,3.832,7.7,8.25,7.7h24.75v16h-15.25c-12.406,0-22.75,9.757-22.75,22.163v17.5
		c0,4.418,3.832,8.337,8.25,8.337h194c4.418,0,7.75-3.919,7.75-8.337v-17.5C252.945,210.867,243.101,201.11,230.695,201.11z
		 M138.87,105.343c4.387-0.57,8.395,2.525,8.962,6.905c0.568,4.382-2.523,8.395-6.905,8.962
		c-16.986,2.201-32.589,12.864-40.72,27.829c-1.45,2.669-4.198,4.183-7.036,4.183c-1.29,0-2.599-0.314-3.813-0.973
		c-3.882-2.109-5.319-6.966-3.21-10.849C96.684,122.008,116.886,108.192,138.87,105.343z M96.945,185.11h100v16h-100V185.11z"/>
	<path d="M61.44,73.233c1.582,1.886,3.849,2.857,6.132,2.857c1.815,0,3.64-0.614,5.139-1.872c3.385-2.84,3.826-7.886,0.985-11.271
		L63.411,50.691c-2.84-3.385-7.885-3.826-11.271-0.985c-3.385,2.84-3.826,7.886-0.985,11.271L61.44,73.233z"/>
	<path d="M45.862,106.396c2.209-3.826,0.897-8.72-2.929-10.929l-13.857-8c-3.826-2.208-8.719-0.898-10.929,2.929
		c-2.209,3.826-0.897,8.72,2.929,10.929l13.857,8c1.26,0.727,2.635,1.072,3.992,1.072C41.69,110.397,44.38,108.962,45.862,106.396z"
		/>
	<path d="M25.148,136.547L9.39,133.769c-4.34-0.761-8.5,2.138-9.268,6.49c-0.767,4.351,2.139,8.5,6.49,9.268l15.758,2.778
		c0.47,0.082,0.937,0.122,1.398,0.122c3.809,0,7.185-2.73,7.869-6.612C32.405,141.464,29.5,137.315,25.148,136.547z"/>
	<path d="M296.433,139.333c-0.768-4.352-4.911-7.244-9.268-6.49l-15.758,2.777c-4.352,0.768-7.257,4.916-6.49,9.268
		c0.685,3.882,4.06,6.612,7.869,6.612c0.461,0,0.929-0.04,1.398-0.122l15.758-2.777C294.295,147.833,297.2,143.685,296.433,139.333z
		"/>
	<path d="M278.122,89.699c-2.208-3.827-7.104-5.139-10.928-2.93l-13.857,7.999c-3.827,2.209-5.139,7.102-2.93,10.928
		c1.482,2.567,4.171,4.002,6.936,4.002c1.357,0,2.733-0.346,3.991-1.072l13.858-7.999C279.019,98.417,280.331,93.525,278.122,89.699
		z"/>
	<path d="M223.369,73.83c1.499,1.258,3.323,1.872,5.139,1.872c2.282,0,4.55-0.972,6.132-2.857l10.285-12.256
		c2.84-3.385,2.399-8.431-0.985-11.271c-3.385-2.84-8.431-2.4-11.271,0.985L222.383,62.56
		C219.544,65.945,219.984,70.991,223.369,73.83z"/>
</g>
</svg>