<svg xmlns="http://www.w3.org/2000/svg" fill="none" viewBox="0 0 103 96">
  <path fill="#000" d="M103 60.8v-5.5l-.3-3v-22l-.1-14.3c0-.9 0-1.8-.6-2.6-.3-.5-.6-1-1-1.3-.6-.4-1.1-.9-1.9-1h-5.4c-.3 0-.4 0-.4-.3a8 8 0 0 0-1-3.5C92 6.6 91.6 6 91 5.7a7.5 7.5 0 0 0-4-1.2h-5a5 5 0 0 0-.5-2.5l-.7-.7C80 .8 79.2.6 78.3.5a67 67 0 0 0-3.5-.1h-9L57.2.2l-9-.2h-6.9l-9 .3h-.8c-.9-.2-1.7 0-2.5.6A3 3 0 0 0 28 3v1.3h-3c-1.2 0-2.4 0-3.5.5-.4.1-.8.3-1.1.6-.9 1-1 2.2-1.2 3.4v2.8l-.5-.1H16c-1.9 0-3.8-.2-5.6.1-1 .2-2 1-2.2 2a9 9 0 0 0-.2 1.8l.1 3.2-.1 7.9-.2 14 .2 5.1.2 5.8-.1 7.7L8 69.2v8.2l.2 6.5-.1 5.9v.2H5l-1 .2c-.2 0-.2.1-.3.2v2H1.4c-.3-.1-.7 0-1 .2l-.3.3-.1 1.7c0 .5.4 1 .8 1l2 .2 4.8-.2H18l7.3-.1h7.6l4.2.2h22.1l13 .1 14.2.2c4.1 0 8.3 0 12.4-.2l2.9-.1c.3 0 .6-.2.8-.4.3-.2.3-.5.3-.8V84.4l.2-5.5v-9.4c.1-2.9.1-5.8 0-8.7Zm-4-48.6h.3c1 0 1.7.5 2 1.4v.4c.3.5.3 1 .3 1.7v8.5c-.2 2.5-.2 4.9 0 7.3v5.7l.2 7.6v6.4l-.1.3-3.6.1v-9.5L98 28.8l-.2-8.7.2-2.2-.1-1-.2-1.9-.7-2-.5-.7H99Zm-7.7 0h3.2c.9 0 1.7.7 2 1.5.3 1 .4 2.2.6 3.4.1 1-.2 1.8-.2 2.8l-.1 4.4-.2 7-.1 8.2v12h-3.6v-.4l.2-13.8v-5.7c-.1-1.2-.3-2.3-.3-3.5v-6.2a65 65 0 0 1-.2-4.2v-1c0-1.1-.2-2.1-.6-3-.1-.4-.4-.7-.6-1l-.5-.5h.4Zm-2.3.1c.8.3 1.5.6 2 1.3l.5 1c.2 1 .4 2 .4 2.9.2 3 0 6 0 9l-.2 4.6v20.4l-3.3-.1v-8.1l.2-4.3v-9.3l-.2-7.6v-4.9l-.1-1.8c-.1-.8-.4-1.6-1-2.3l-.3-.7c.6-.1 1.3-.2 2 0ZM29.2 2c.5-.5 1-.8 1.7-.8h3.5l7.5.3h6.2l9.4-.2 6.9-.1c.7 0 1.4 0 2.1.2.8 0 1.1.6 1.3 1.3 0 .3 0 .7.2.8.2.2.6 0 .9 0l8.8.1h.7c.2 0 .4 0 .4.3s-.2.3-.4.3h-19l-3.4.2h-4.5l-3.6.2-3.8-.2-6.2-.1-7-.1h-2c-.3 0-.3 0-.3-.2 0-.7 0-1.4.6-2Zm47.9 85.5V64.2c0-.2 0-.3.2-.4l1.7-1.6v22.2l.1 2.5.1.6h-2.1Zm3.8.8v1.6h-5.2v-1.6H81Zm-4-29.4H56.4l-16-.1H10.6l-.3-1.2v-1h14.2l8.4.2h5.9c2.7 0 5.5.2 8.2 0 4.6-.3 9.2-.1 13.8-.2H76l3.6.1h1.6c.4 0 .4 0 .4.3v1.3c0 .5-.1.7-.6.7h-4ZM66 85.6v-.1c.3-.6.3-.6 1-.6l2.8-.1h.3l.1-3 .1-3.8v-3l-.1-2-.2-2v-3.5c0-.5 0-1-.3-1.6 0-.2-.3-.2-.5-.2h-5.5l-1.4.1c-.3 0-.3.3-.3.5v8.3l-.3.3-1.1.7 1.7 1.4s.2.1.2 0l2.4-1.4c-.5-.5-1-.8-1.6-.9-.3 0-.3 0-.3-.3l-.1-7.3v-.5h2.5c.1 0 .2 0 .2.3v9.6l-.4-.5-2.2 1.6-.2.2v2l1.6-.7 1.7-.8c.1 0 .2-.1.2-.3V66.7h3c.3 1.3.3 2.7.1 4l-.2 3-.1 2.3v4l.2 4.2h-2.8l.4-2.3-.5.2-2 1.2-1.5.8v2.2h2.5v3.6H60v-3.7h2v-2.1l-3.2-2.4v.1c0 1.2 0 2.4.4 3.5.2.5.2 1 .1 1.4v3.2h-1.2V73.2l-.3-1.8H57l-14.4-.1h-7.5c-.4 0-.5.3-.5.6l-.1 2.9V89l.1.8h-1v-.6l-.1-3-.2-1.2v-.3l.3-1.4-2.7 1.1c-.4.2-.6.4-.5 1v.4h2.4v4h-5v-4h2v-1l-.2-.3-2.9-1.5-.4-.2.2 1h-2.4v-5.7l-.1-4.8V71l.1-1.9L24 67c0-.4 0-.4.4-.4h2.5v10.6l-.1.6-.4 1.3.1.3 3.3 1.2v-1.8c0-.5-.1-.8-.5-1-.6-.3-1-.7-1.5-1.1l-.2-.1V67c0-.4 0-.5.3-.5h2.5v8.8a3 3 0 0 0-2.3.9l2.1 1.3h.4l1.7-1.2c-.3-.3-.5-.5-.8-.6-.2-.1-.2-.2-.2-.5A688 688 0 0 0 31 66l-.4-.2h-6.4l-1 .1.1.2c-.2.2 0 .3 0 .5v9.7l-.2 4.2v4c1.2.4 2.4.1 3.5.2.2 0 .3 0 .4.2.2.3.2.6.2 1v3.8l-.5.1h-6.4V66c0-.5 0-.5.5-.6 1.7 0 3.4-.2 5.1-.4 1.6 0 3.2-.2 4.7-.3l3.9-.3 3.8-.3 3.7-.3c1.4 0 2.7-.2 4.1-.3 1.3 0 2.5-.2 3.8-.3l4-.3c1.3 0 2.6-.2 3.8-.3 1.4 0 2.7-.2 4-.3l3-.2 6-.4 2-.2V90h-6.6v-3l-.1-.6V86c.2-.2.2-.3 0-.4Zm-9-12.8v17h-9v-15c2.9-1 6-1.1 9-2ZM46.2 87.6v-6.2l-.1-5.8c0-.2 0-.3.3-.4.2 0 .5 0 .8-.2v15h-1v-2.3Zm-.7-12.1v14.4h-8V77.6l8-2.1Zm-8.9 14.3h-1c0-4.4-.4-8.9 0-13.4l1 .8v12.6Zm-17.3.1h-.9v-1.2l-.2-1.3H18c-.2-.3-.6-.2-.9-.2h-.4V60h2.8c-.2 10-.1 20-.1 30Zm-3.5-24.5v18.4l.1 2.8.2.6h-2.2V64.9c0-.3.1-.4.4-.6.5-.2 1-.6 1.5-1v2Zm1.8 22.4c0 .7-.1 1.4.2 2.1H12v-2h5.6Zm64.1-32h-5.4l-7.3-.1H49.4l-2.3-.2H33.3l-7 .2H10.6l.2-3.3 2.5-.2h15.8c.5 0 1 0 1.5.3H81c.3 0 .5.2.5.5l.1 1.4v1.3ZM23.5 39v1.2h-2.7c-.4 0-.6-.2-.6-.6l-.1-2.4V31c0-.4.4-.6.7-.6H23v-1.1l.2-.4.2-.1.2.2v10Zm-3.4 2.4c0-.3.1-.4.4-.4H30l3.2.2 5.4-.2h5.1l11.6.2h17.3v10.2h-5c-.4 0-.5-.1-.4-.5 0-.3-.3-.6-.6-.6l-2.2-.2h-.8v-4.5c0-.3-.1-.8-.3-1h-1l-.2.2-.1.8v5c.3.2 0 .5 0 .8h-2.7c0-.3.2-.6 0-.9 0-.2-.1-.5-.5-.5h-2.7v-1h2l.4-.5v-.6c0-.2-.3-.6-.6-.6H56v-1.1h2.3c.7 0 .8-.3 1-1 0-.2-.1-.5-.3-.6-.2-.2-.4-.2-.7-.3h-2.1a7 7 0 0 0-1.3 0c-.4 0-.5.4-.5.7l-.1 5v1l.2.3H49V47c0-.8 0-.8.8-.8.5 0 .8-.2.8-.7 0-1-.2-1-.9-1h-3.6c-.6 0-.8.1-.8.7l.1.8c0 .3.3.4.6.3h1.2v5h-6.7l.8-.7c.6-.6.8-1.4.8-2.3l-.5-2.2a2 2 0 0 0-1.6-1.3 5 5 0 0 0-2.5 0 3 3 0 0 0-1.6 1.7c-.3.9-.4 1.7-.2 2.6a3 3 0 0 0 1.6 2l.4.3h-5.5v-6.5c0-.3-.1-.5-.5-.4H31c-.3 0-.4.2-.4.5v2h-2v-1.8c0-.8-.3-1-1-1l-.7.3v.2l-.1 5.1v1.5h-5.9c-.4 0-.6 0-.6-.4l-.1-3.2v-6.4Zm15.3-1.9v.5c-3.7.3-7.4 0-11.2.1v-9.5l4.3-.3 6.5-.4c.3 0 .4 0 .4.4v9.2Zm4.3-10.7c0-.2 0-.3.3-.3.2 0 .2.1.3.3v2.9l.1 6.7v1.2l-4.3.3v-10l3.6-.1v-1ZM41 39.5v-9.7h.7l2.3-.1 4.5-.1h4.6c.3 0 .4 0 .3.3l-.2.9-.2.7-.2 7.1V40L41 39.5ZM57.4 34v6H57l-2.5.1c-.3 0-.5 0-.5-.4V34l-.2-3.9v-.7h2c.6 0 .7 0 .8-.5l.1-.8.3-.3c.2 0 .3.2.2.3.5 2 .2 4 .2 5.8Zm.8 5.8V29.5c.9 0 1.8 0 2.7-.2 1.9-.2 3.7-.3 5.6-.2L69 29h.6v11c-3.8.2-7.5-.2-11.3-.2Zm12 .2V28.8l2.4-.2V40h-2.3Zm-29.6 9.2c-.2.5-.5.8-1 .8h-1.3c-.7-.3-1-1-1-1.8v-.8c.2-.7.7-1.3 1.6-1.2h1l.4.4c.4.8.6 1.7.3 2.6Zm-10 2-.2.2h-2l.1-2.4h1.7c.2 0 .3 0 .3.2v2ZM20 11.8V9c.1-.9.2-1.7.7-2.4.3-.6.8-1 1.5-1.1 1.7-.4 3.4-.3 5.1-.3.8 0 1.5.3 2.2.3h5.3c2.6 0 5.3 0 8-.2l3.1.2 5.1-.2h5.2l6.2.2 3.8-.1c1 0 1.8 0 2.7.2.6.1 1.2.4 1.8.7a3 3 0 0 1 1.5 1.8c.3.6.4 1.3.4 2v14.2H70v-1l.1-.4.1-9a4 4 0 0 0-.3-1.8l-.2.3v-.7h-.3l-6.3-.1h-5.3c-.4 0-.9.4-.9.8l.1.4-.1 3v3.8l.2 4.7h-3.5c-.2 0-.3 0-.3-.3l.1-6.5.1-5.2v-.6l-.5-.2h-4.8l-4-.1-3.2.2h-.5c-.3 0-.5.2-.5.5l-.1 3.3v8.1l.1.8h-4V16l-.1-3.2-.1-1c0-.2-.2-.4-.3-.3-1.2.2-2.3 0-3.5-.2h-7.8c-.3.1-.5.3-.5.6a35 35 0 0 0-.2 6.5l.1 4.4v1.5h-3c-.3-1-.4-2-.5-3.1v-2l-.2-3.8c0-1.2 0-2.4.2-3.6Zm37.7.8c0-.3.1-.3.4-.3h2.4l4 .3 2-.1 2.1-.2h.8v10.6l.1 1v.4H58V24l-.2-.3V21l.2-4.7c0-1.2 0-2.5-.2-3.7ZM41 17.9v-5.6h8.9c1-.1 2-.4 3-.1l.2 12H40.8l.1-5.4v-1Zm-16.6 5-.1-5.2v-1l-.1-3v-1.4c0-.2.2-.2.4-.2l2.7.1H31l2.8.2h1.6l.2 11.9H24.3V23ZM25 25h45.6c.4 0 .7 0 1 .5.4.7 0 1.4-.8 1.4h-4.2l-16.7-.1h-31c-.5-.2-.7-.8-.5-1.4.2-.3.4-.3.7-.3H25ZM9.2 71.6V59c-.3-3.2-.2-6.3-.2-9.4 0-1.7.3-3.3.3-5V23.3L9 20l.1-5v-.6c0-.7.2-1.2.9-1.5.5-.3 1.1-.4 1.8-.4h5.5l1.8-.2v12.1l-.6.1c-.6.2-.8.8-1 1.4 0 .7.4 1.1 1 1.4v.1c.6.1.7.4.7 1v23H11l-1 .1v8c0 .3 0 .4.4.4h2.8v.6l-.1 9v16.3c0 .5-.1 1 .2 1.4h-1l-.8.1-.2.4.1 2.2H9v-8l.2-3.8v-6.5Zm70.4 22.8h-2c-6.4.2-13 .4-19.4.3l-7.8-.1H39.5L34 95H11.9l-7.2-.3H1v-1.4h16.8a179.3 179.3 0 0 0 19.9.2h20.6l4.8-.2h4.6l9 .2h2.9v1Zm2-4.5v-2h-.2l-.2-.2-.5-.2h-1V60.1h6.5c.3 0 .5 0 .5-.4l.1-2.5v-3.9c.1-.6 0-1.2-.3-1.6-.1-.2-.4-.3-.7-.3h-1.3l-3.2-.3H78l.2-39h.5l4.8.1c1 0 2.2.3 3 1 .5.5.7 1 .9 1.7.4 2.1.2 4.3.2 6.5l-.2 12.3v4.7l.1 3V43l.2 4.5-.1 2.7v10c-.2 1.2-.1 2.4-.1 3.7v4.3c0 1.8-.2 3.6 0 5.3v11.9l.2 2.6v1.9h-6ZM92 90h-3.5v-1l-.1-3.3V76l-.1-4 .1-4.3v-2.9l-.1-4.5h3.6v1.8l-.1 3.6v7l.2 14.7V90Zm.2-31c-.2-1.3-.2-2.6-.2-3.8l.1-2v-.4h.6l.1 1 .1 2.8c0 .8 0 1.7-.2 2.5l-.1.2-.3-.1-.1-.3Zm4.7 31h-4.4V74.8l.2-7.4v-7h3.5v2.4l.4 7.5v14.4l.3 4.7v.6Zm-.2-30.8-.1-.3v-5.4c0-.2-.1-.5.2-.6.3 0 .6.2.6.5v4.9c0 .3 0 .7-.3 1l-.4-.1Zm5 30.8h-4.3c-.2 0-.3-.1-.3-.3v-2l.2-3V71.6l.3-5.7.2-5.1c0-.3 0-.4.3-.4h3.3v14.8l.2 6.6.2 8v.3Z"/>
  <path fill="#E5E5E5" d="M72.8 89.9h-6.6v-3l-.1-.6V86c.2-.2.2-.3 0-.4v-.1c.2-.6.2-.6.9-.6l2.8-.1h.3l.1-3 .1-3.8v-3l-.1-2-.2-2v-3.5c0-.5 0-1-.3-1.6 0-.2-.3-.2-.5-.2h-5.5l-1.4.1c-.3 0-.3.3-.3.5v8.3l-.3.3-1.1.7 1.7 1.4s.2.1.2 0l2.4-1.4c-.5-.5-1-.8-1.6-.9-.3 0-.3 0-.3-.3l-.1-7.3v-.5h2.5c.1 0 .2 0 .2.3v9.6l-.4-.4-2.2 1.5-.2.2v2l1.6-.7 1.7-.8c.1 0 .2-.1.2-.3V66.7h3c.3 1.3.3 2.7.1 4l-.2 3-.1 2.3v4l.2 4.2h-2.8l.4-2.3-.4.2-2.2 1.2-1.4.8v2.2h2.5v3.6H60v-3.7h2v-2.1l-3.2-2.4v.1c0 1.2 0 2.4.4 3.5.2.5.2 1 .1 1.4V90h-1.2V73.2l-.3-1.8h-.6l-14.5-.1h-7.5c-.4 0-.5.3-.5.6l-.1 2.9V89l.1.8h-1v-.6l-.1-3-.2-1.2v-.3l.3-1.4-2.7 1.1c-.4.2-.6.4-.5 1v.4h2.4v4h-5v-4h2v-1l-.2-.3-2.9-1.5-.3-.2.1 1h-2.4v-5.7l-.1-4.8L24 71l.1-1.9L24 67c0-.4 0-.4.4-.4h2.5v11.2l-.5 1.4.1.2 3.3 1.2v-1.8c0-.5-.1-.8-.5-1l-1.5-1c0-.2-.2-.2-.2-.2V67c0-.3 0-.5.3-.4h2.5v8.7a3 3 0 0 0-2.3.9c.8.4 1.4 1 2.1 1.3h.5l1.6-1.2c-.3-.2-.5-.5-.8-.6-.2-.1-.2-.2-.2-.4A688 688 0 0 0 31 66c0-.2-.3-.3-.4-.3h-6.4l-1 .1.1.3c-.2 0 0 .2 0 .4v9.7l-.2 4.2v4c1.2.4 2.4.1 3.5.2.2 0 .3 0 .4.2.2.3.2.6.2 1v4h-6.9V66c0-.5 0-.5.5-.5L26 65l4.7-.4 3.9-.3c1.3 0 2.5-.2 3.8-.3l3.7-.3c1.4 0 2.7-.2 4.1-.3 1.3 0 2.5-.2 3.8-.3l4-.3c1.3 0 2.6-.2 3.8-.3 1.4 0 2.7-.2 4-.3l3-.2 6-.4 2-.2V90Zm-13.4-20 .2-.6c0-1 0-2.1-.3-3.2L59 66h-.8l-3.6.1L49 66l-3.1.1H34.6c-.4 0-.8 0-1.2.4l-.1.2.2 2.9c0 .3.1.4.4.4h2.3l7.7-.1h2.4l5.4-.1h5.7c.6 0 1.3.2 1.9 0v.1ZM62.8 83c1.1-.2 2.3-.9 3.4-1.6.6-.4.8-.8.6-1.4l-.2-1.3-3.6 1.5-.2.3V83Zm-29-3.6-.3.2-2.9 1.6-.1.2V84h.1l3-1.3.2-.4v-2.8Zm25.4-1-.3 2.3s0 .2.2.2l2.8 2.2.2.2v-2.7l-.1-.2-1.6-1.1-1.2-.8ZM29.8 84v-2.4c0-.1 0-.2-.2-.3L26.4 80v2c0 .1 0 .2.2.3l2.2 1 1 .6Zm.7-3.3h.2a295 295 0 0 0 2.9-2l-.8-1.7h-.2c-.7.5-1.3 1-2 1.3l-.1.2v2.2ZM62 80v-2.2L60.2 76l-.8 1.7c0 .1 0 .2.2.3l1.7 1.3.8.6Zm10.7-55.7H70l.2-1V23l.1-9a4 4 0 0 0-.3-1.8l-.2.3v-.7h-.3l-6.3-.1h-5.3c-.4 0-.9.4-.9.8v7.2l.2 4.7h-3.5c-.2 0-.3 0-.3-.3l.1-6.5.1-5.2v-.6l-.5-.2h-4.8l-4.1-.1-3.1.2h-.5c-.3 0-.5.2-.5.5l-.1 3.3v8.1l.1.8h-4V16l-.1-3.2-.1-1c0-.2-.2-.4-.3-.3-1.2.2-2.3 0-3.5-.2h-7.9c-.3.1-.5.3-.5.6a35 35 0 0 0-.2 6.5l.1 4.4v1.5h-3c-.3-1-.4-2-.5-3.1v-2l-.2-3.8c0-1.2 0-2.4.2-3.6V9c.1-.9.2-1.7.7-2.4.3-.6.8-1 1.5-1.1 1.7-.4 3.4-.3 5.1-.3.8 0 1.5.3 2.2.3h5.3c2.6 0 5.3 0 8-.2l3.1.2 5.1-.3h5.2l6.2.3 3.8-.1c1 0 1.8 0 2.7.2.6.1 1.2.4 1.8.7.8.3 1.2 1 1.5 1.8.3.6.4 1.3.4 2v14.1Zm5.5-12.1h5.3c1 0 2.2.3 3 1 .5.5.7 1 .9 1.7.4 2.1.2 4.3.2 6.5l-.2 12.3v4.7l.1 3V43l.2 4.5-.1 2.7v10c-.2 1.2-.1 2.4-.1 3.7v4.3c0 1.8-.2 3.6 0 5.3v11.9l.2 2.6v2h-6v-1.1l-.1-1h-.2l-.2-.2-.5-.2h-1V60.1h6.5c.3 0 .5 0 .5-.4l.1-2.5v-3.9c.1-.6 0-1.2-.3-1.6-.1-.2-.4-.3-.7-.3h-1.3c-1.1 0-2.2-.2-3.2-.3H78l.2-39Zm2.1 22c-.2.3-.1.7-.1 1.2a5992.5 5992.5 0 0 0 0 12.3c.1.2.3.4.5.4l-.2.2c.3.1 0 .2 0 .3l.5.2h1.5c.4 0 .8.1 1-.2h.3c.4-.2.5-.2.5-.7 0-1.7 0-3.4.2-5.1l.1-2.4c.2-1.2.2-2.4.1-3.6v-2.3c0-.3-.2-.5-.4-.6l-1-.2H82c-.3 0-.6 0-.9.2l-.7.2Zm4.2-11.4v-6c0-.6-.2-1-.7-1-1.1 0-2.3-.3-3.3.4l-.2.3-.2.8V27l.2 2.4c0 .3-.1.6 0 .8 0 .4.2.6.5.5h2.6c.5 0 .8-.3 1-.8v-7ZM62 50.6c.3.2 0 .5 0 .8h-2.7c0-.3.2-.6 0-.9 0-.2-.1-.5-.5-.5h-2.7v-1h2l.4-.5v-.6c0-.2-.3-.6-.6-.6H56v-1.1h2.3c.7 0 .8-.3 1-1 0-.2 0-.5-.3-.6-.2-.2-.4-.2-.7-.3h-2.1a7 7 0 0 0-1.3 0c-.4 0-.5.4-.5.7l-.1 5v1l.2.3H49V47c0-.8 0-.8.8-.8.5 0 .8-.2.8-.7 0-1-.2-1-.9-1h-3.6c-.6 0-.8.1-.8.7l.1.8c0 .3.3.4.6.3h1.2v5h-6.7l.8-.7c.6-.6.8-1.4.8-2.3l-.5-2.2a2 2 0 0 0-1.6-1.3 5 5 0 0 0-2.5 0 3 3 0 0 0-1.6 1.7c-.3.9-.4 1.7-.2 2.6a3 3 0 0 0 1.6 2l.4.3h-5.5v-6.5c0-.3-.1-.5-.5-.4H31c-.3 0-.4.2-.4.5v2h-2v-1.8c0-.8-.3-1-1-1-.3 0-.5.2-.7.3v.2l-.1 5.1v1.5h-5.9c-.4 0-.5 0-.6-.4l-.1-3.2v-6.4c0-.3.1-.4.4-.4H30l3.2.2 5.4-.2h5.1l11.6.2h17.3v10.2h-5c-.4 0-.5-.1-.4-.5 0-.3-.3-.6-.6-.6l-2.3-.2h-.7v-4.5c-.1-.3-.1-.8-.3-1h-1l-.2.2-.1.8v5ZM19.2 12.3v12.1l-.6.1c-.6.2-.8.8-1 1.4 0 .7.4 1.1 1 1.4v.1c.6.1.7.4.7 1v23H11l-1 .1v8c0 .3 0 .4.4.4h2.8v.6l-.1 9v16.3c0 .5-.1 1 .2 1.4h-1l-.8.1-.2.4.1 2.2H9v-8l.2-3.8V59c-.3-3.2-.2-6.3-.2-9.4 0-1.7.2-3.3.3-5V23.3L9 20l.1-5v-.6c0-.7.2-1.2.9-1.5.5-.3 1.1-.4 1.8-.4h5.5l1.8-.2ZM13 34.7c-.2-.4-.4-.3-.4 0l-.2 1.3-.2 8.2.1 3.7v.3c.2.5.3.7.8.7h2.1l1.1-.2.2-.3v-.6l.1-5 .2-2v-4.7a3 3 0 0 0-.3-1.9v-.1l-.2.2-.3-.1h-2.4c-.3 0-.5.1-.6.5Zm3-4.6c.6 0 .6-.4.6-.8v-11l-.2-1.5v-.3c.2-.4.1-.6-.3-.6h-3c-.8.1-1 .2-1 1l-.1 1.8v5l.2 6.4c0 .4.2.5.6.5h1c.7 0 1.5.2 2.3-.2L16 30Z"/>
  <path fill="#888" d="M81.7 55.7H80l-3.6.1-7.3-.1H49.4l-2.3-.2H33.3l-7 .2H10.6l.2-3.3 2.5-.2h15.8c.5 0 1 0 1.5.3H81c.3 0 .5.2.5.5l.1 1.4v1.3Zm-71 3.1-.3-1.2v-1h14.2l8.4.2h5.9c2.7 0 5.5.2 8.2 0 4.6-.3 9.2-.1 13.8-.2H76l3.6.1h1.6c.4 0 .4 0 .4.3v1.3c0 .5-.1.7-.6.7h-4.3l-20.5-.2H10.7Zm80.2-46.6h3.6c.9 0 1.7.7 2 1.5.3 1 .4 2.2.6 3.4.1 1-.2 1.8-.2 2.8l-.1 4.4-.2 7-.2 8.2v12H93v-.4l.2-13.8v-5.7c-.1-1.2-.3-2.3-.3-3.5v-6.2a65 65 0 0 1-.2-4.2v-1c0-1.1-.2-2.1-.6-3-.1-.4-.4-.7-.6-1l-.5-.5Z"/>
  <path fill="#F8F8F6" d="M48 74.9c2.9-1.2 6-1.2 9-2.1v17h-9v-15Z"/>
  <path fill="#888" d="M96.6 12.2h2.7c1 0 1.7.5 2 1.4v.4c.3.5.3 1 .3 1.7v8.5c-.2 2.5-.2 4.9 0 7.3v5.7l.2 7.6v6.4l-.1.3-3.6.1v-9.5L98 28.8l-.2-8.7.2-2.2-.1-1-.2-1.9-.7-2-.5-.7Z"/>
  <path fill="#F8F8F6" d="m40.8 24.3.1-5.5v-6.5h8.9c1-.1 2-.4 3-.1l.2 12H40.8Zm28.7-12v10.6l.1 1v.4H58V24l-.2-.3V21l.2-4.7c0-1.2 0-2.5-.2-3.7 0-.3.1-.3.4-.3h2.4l4 .3 2-.1 2.1-.2h.8Zm-34 12H24.3V23l-.1-5.3v-1l-.1-3v-1.4c0-.2.2-.2.4-.2l2.7.1h3.7l2.8.2h1.6l.2 11.9Z"/>
  <path fill="#888" d="m91.7 51.5-3.3-.1v-8.1l.2-4.3v-9.3l-.2-7.6v-4.9l-.1-1.8c-.1-.8-.4-1.6-1-2.3l-.3-.7c.6-.1 1.3-.2 2 0 .8.2 1.5.5 2 1.2l.5 1c.2 1 .4 2 .4 2.9.2 3 0 6 0 9l-.2 4.6v20.4Z"/>
  <path fill="#E5E5E5" d="M72.5 4.3h-21l-3.6.3-3.8-.2-6.2-.1-7-.1h-2c-.3 0-.3 0-.3-.2 0-.7 0-1.4.6-2 .5-.5 1-.8 1.7-.8h3.5l7.5.3h6.2l9.4-.2 6.9-.1c.7 0 1.4 0 2.1.2.8 0 1.1.6 1.3 1.3 0 .3 0 .7.2.8.2.2.6 0 .9 0l8.8.1h.7c.2 0 .4 0 .4.3s-.2.3-.4.3h-5.9Z"/>
  <path fill="#F8F8F6" d="M58.2 29.5c.9 0 1.8 0 2.7-.2 1.9-.2 3.7-.3 5.6-.2L69 29h.6v11c-3.8.2-7.6-.2-11.3-.2V29.5Z"/>
  <path fill="#888" d="M101.8 90h-4.4c-.2 0-.3-.1-.3-.3v-2l.2-3V71.6l.3-5.7.2-5.1c0-.3 0-.4.3-.4h3.3v14.8l.2 6.6.2 8v.3Z"/>
  <path fill="#F8F8F6" d="m52.8 39.9-11.7-.4v-9.7h.7l2.3-.1 4.5-.1h4.6c.3 0 .4 0 .3.3l-.2.9-.2.7-.2 7.1V40Z"/>
  <path fill="#888" d="M97 90h-4.5V74.8l.2-7.4v-7h3.5v2.4l.4 7.5v14.4l.3 4.7v.6Z"/>
  <path fill="#F8F8F6" d="M35.4 40c-3.7.3-7.4 0-11.2.1v-9.5l4.3-.3 6.5-.4c.3 0 .4 0 .4.4V40Zm10.1 49.9h-8V77.6l8-2.1v14.4Z"/>
  <path fill="#888" d="M88.3 60.3h3.6v1.8l-.1 3.6v7l.2 14.7V90h-3.5v-1l-.1-3.3V76l-.1-4 .1-4.3-.1-2.9v-4.5ZM45 26.9H19c-.6-.3-.8-1-.6-1.5.2-.3.4-.3.7-.3h51.5c.4 0 .7 0 1 .4.4.7 0 1.4-.8 1.4h-4.2l-16.7-.1h-5Z"/>
  <path fill="#E5E5E5" d="M16.6 60h2.8c-.2 10-.1 20-.1 30h-.9v-1.3l-.2-1.3H18c-.2-.3-.6-.2-.9-.2h-.4V60Z"/>
  <path fill="#fff" d="M79 62.2v24.7l.2.6h-2.1V64.2c0-.2 0-.3.2-.4l1.7-1.6Zm-63.2 1.2v20.4l.1 2.8.2.6h-2.2V64.9c0-.3.1-.4.4-.6.5-.2 1-.6 1.5-1Z"/>
  <path fill="#E5E5E5" d="m36.1 29.9 3.6-.1v-1c0-.2 0-.3.3-.3.2 0 .2.1.3.3v2.9l.1 6.7v1.2l-4.3.3v-10Zm17.7-.4h2c.6 0 .6 0 .8-.5l.1-.8.3-.3c.2 0 .2.2.2.3.5 2 .2 4 .2 5.8v6H57l-2.5.1c-.3 0-.5 0-.5-.4V34l-.2-3.9v-.7ZM23.4 40.2h-2.6c-.4 0-.6-.2-.6-.6l-.1-2.4V31c0-.4.4-.6.7-.6H23v-1.1l.2-.4.2-.1.2.2v11.2Zm46.9-11.4 2.3-.2V40h-2.3V28.8Z"/>
  <path fill="#888" d="M47.2 75v15h-1v-8.5l-.1-5.8c0-.2 0-.3.3-.4.2 0 .5 0 .8-.2Zm-11.6 1.4 1 .8v12.6h-1c0-4.4-.4-8.9 0-13.4Z"/>
  <path fill="#fff" d="M12 90v-2.1h5.6c0 .6-.1 1.3.2 2H12Z"/>
  <path fill="#E5E5E5" d="M39 46.2h.9l.4.4c.4.8.6 1.7.3 2.6-.2.5-.5.8-1 .8h-1.3c-.7-.3-1-1-1-1.8v-.8c.2-.8.7-1.3 1.6-1.2Z"/>
  <path fill="#fff" d="M75.7 90v-1.7H81v1.6h-5.2Z"/>
  <path fill="#F8F8F6" d="M97.1 59.2h-.4l-.1-.3v-5.4c0-.2-.1-.5.2-.6.3 0 .6.2.6.5v4.9c0 .3 0 .7-.3 1Zm-4.9-6.4h.5l.1 1 .1 2.8c0 .8 0 1.7-.2 2.5l-.1.2-.3-.1-.1-.3c-.2-1.2-.2-2.5-.2-3.7l.1-2v-.4Z"/>
  <path fill="#E5E5E5" d="M28.5 49h1.7c.2 0 .3 0 .3.2v2l-.1.2h-2l.1-2.4Z"/>
  <path fill="#000" d="m59.4 69.8-.1-.2c-.6.3-1.3 0-1.9 0h-5.7l-5.4.2H44l-7.7.1H34c-.3 0-.4-.1-.4-.4l-.2-2.9.1-.2a2 2 0 0 1 1.2-.4h19.9l3.6-.2.8.1.3.2c.4 1 .3 2.1.3 3.2l-.1.6h-.1ZM34.2 69h11.2l3.8-.2c3.2 0 6.4-.3 9.6.3v-2.2h-.5l-3 .1h-7.1c-.5-.1-1 0-1.6 0H34.1l.1 2Zm28.6 14.1v-2.5c0-.1 0-.2.2-.3l3.6-1.5c0 .4 0 .9.2 1.3.2.6 0 1-.6 1.4-1.1.7-2.3 1.4-3.4 1.6Zm-29-3.6v2.8l-.2.4-3 1.3h-.1v-2.5l.1-.2 3-1.7.2-.1Zm25.4-.9 1.2.8 1.6 1 .1.3v2.7l-.2-.2a381.4 381.4 0 0 1-3-2.4l.3-2.2Zm-29.4 5.3-1-.5-2.2-1c-.2-.1-.3-.2-.3-.4v-2l3.3 1.2.2.3v2.4Zm.7-3.3v-2.4l2.1-1.2.2-.1.8 1.6v.3l-3 1.7h-.1Zm31.6-.6c-.3-.2-.5-.5-.8-.6L59.6 78l-.2-.3.8-1.7 1.9 1.7V80Zm18.2-45.9.7-.2.9-.2h1.5l.9.2c.2.1.4.3.4.6v5.9c-.2.8-.2 1.6-.2 2.4l-.2 5c0 .6 0 .6-.5.7h-.2c-.3.4-.7.3-1 .3H81l-.5-.2c0-.1.3-.2 0-.3l.3-.2c-.3 0-.5-.2-.5-.4l-.1-.6V35.4l.1-1.3Zm.9.7V48h2.3V35.2c0-.2-.2-.4-.5-.4h-1.8Zm3.3-12v5.7c0 .4 0 .8-.2 1.2 0 .6-.4.8-1 .8h-2.5c-.3.2-.6 0-.6-.4v-8.3l-.2-3.5.1-1 .2-.8c0-.1 0-.3.2-.3 1-.7 2.2-.3 3.3-.3.5 0 .7.3.7.9v6Zm-1 6.7V17h-2.7v.3l.1.3v4.9L81 25v4.5h2.5ZM13 34.7c0-.4.3-.5.6-.5H16l.3.1.1-.2.1.1c.3.6.4 1.2.3 2v4.6l-.2 2-.1 5v.6l-.2.3-1 .2H13c-.5 0-.6-.2-.8-.7v-4a589.7 589.7 0 0 1 .3-9.5c0-.3.2-.4.4 0Zm2.6.4h-1.9c-.2 0-.3 0-.3.2v.8l-.2 3.2v8c0 .3.3.5.7.5h2v-2.3l-.1-2.8v-1.4c-.4-1.4-.2-2.8-.2-4.2v-2Zm.4-5 .2.3c-.9.4-1.7.2-2.5.2h-1c-.3 0-.5-.1-.5-.5l-.1-6.4a296.5 296.5 0 0 1 0-6.7c0-1 .2-1 1-1 1-.2 2-.1 3-.1.4 0 .5.2.3.6v.3l.2 1.4v11.1c0 .4 0 .8-.6.8Zm-.4-.4v-13H13l-.2.2v.4l.2 3-.2 2.5v6.5l.1.4h2.7Z"/>
  <path fill="#F8F8F6" d="M34.2 68.9v-2h12.3c.5 0 1-.1 1.6 0h7.1l3-.1h.5V69c-3.2-.6-6.4-.4-9.6-.3-1.3 0-2.5.3-3.8.3l-8.3-.1h-2.9Zm47-34.1H83c.3 0 .4.2.4.4v4.3l.1 3.7V48h-2.3V34.8Zm2.3-5.3H81V25l-.1-2.5-.2-4.4.1-.5v-.3l-.1-.3h2.7v12.5ZM15.6 35v2.1c0 1.4-.2 2.8.1 4.2v1.4l.2 2.8v2.3h-2a.6.6 0 0 1-.7-.5v-8l.1-3.2v-.8l.4-.2h1.9Zm0-5.3h-2.7v-.4l-.2-3v-3.5l.3-2.5-.1-3c0-.1-.1-.3 0-.4l.1-.2h2.6v13Z"/>
  <path fill="#fff" d="m82 92.1-4.6.1h-5.3l-8 .2-4.6-.2H48.3c-2.9 0-5.8.1-8.7 0a197 197 0 0 0-11.6-.1l-10.2.3H4.4v-1.6H82V92Zm-2.4 1.3v1h-2c-6.4.2-13 .4-19.4.3l-7.8-.1H39.5L34 95H11.9l-7.2-.3H1v-1.4h16.8a179.3 179.3 0 0 0 19.9.2h20.6l4.8-.2h4.6l9 .2h2.9Z"/>
</svg>
